<svg xmlns="http://www.w3.org/2000/svg" width="48" height="48" viewBox="0 0 48 48" role="img" aria-label="GyaanVault logo">
  <defs>
    <linearGradient id="gv-badge" x1="0" y1="0" x2="1" y2="1">
      <stop offset="0%" stop-color="#2563eb"/>
      <stop offset="55%" stop-color="#3b82f6"/>
      <stop offset="100%" stop-color="#22d3ee"/>
    </linearGradient>
  </defs>
  <rect x="1.5" y="1.5" width="45" height="45" rx="12" fill="url(#gv-badge)"/>
  <rect x="1.5" y="1.5" width="45" height="45" rx="12" fill="none" stroke="#ffffff" stroke-opacity="0.18" stroke-width="1"/>
  <path d="M14 20 L20.5 15 L27 18.5 L34 12" fill="none" stroke="#ffffff" stroke-width="2.2" stroke-linecap="round" stroke-linejoin="round" stroke-opacity="0.95"/>
  <circle cx="14" cy="20" r="1.9" fill="#ffffff"/>
  <circle cx="20.5" cy="15" r="1.9" fill="#ffffff"/>
  <circle cx="27" cy="18.5" r="1.9" fill="#ffffff"/>
  <circle cx="34" cy="12" r="2.1" fill="#ffffff"/>
  <path d="M9 27.5c4.5-2.4 9-2.4 15 0 6-2.4 10.5-2.4 15 0v9c-4.5-2.4-9-2.4-15 0-6-2.4-10.5-2.4-15 0z" fill="#ffffff"/>
  <path d="M24 27.5v9" stroke="#2563eb" stroke-width="1.6" stroke-linecap="round" stroke-opacity="0.55"/>
</svg>
